<?xml version="1.0" encoding="UTF-8" standalone="no"?>
<svg
   version="1.1"
   x="0px"
   y="0px"
   viewBox="0 0 100 125"
   enable-background="new 0 0 100 100"
   xml:space="preserve"
   id="svg8"
   sodipodi:docname="icon.svg"
   inkscape:version="1.3 (0e150ed6c4, 2023-07-21)"
   xmlns:inkscape="http://www.inkscape.org/namespaces/inkscape"
   xmlns:sodipodi="http://sodipodi.sourceforge.net/DTD/sodipodi-0.dtd"
   xmlns="http://www.w3.org/2000/svg"
   xmlns:svg="http://www.w3.org/2000/svg"><defs
     id="defs8" /><sodipodi:namedview
     id="namedview8"
     pagecolor="#ffffff"
     bordercolor="#000000"
     borderopacity="0.25"
     inkscape:showpageshadow="2"
     inkscape:pageopacity="0.0"
     inkscape:pagecheckerboard="0"
     inkscape:deskcolor="#d1d1d1"
     inkscape:zoom="6.568"
     inkscape:cx="49.939099"
     inkscape:cy="62.5"
     inkscape:window-width="1920"
     inkscape:window-height="1017"
     inkscape:window-x="-8"
     inkscape:window-y="-8"
     inkscape:window-maximized="1"
     inkscape:current-layer="svg8" /><g
     id="g4"><g
       id="g1"><path
         d="M22.246,47.894l6.13-14.174c0.33-0.762,1.077-1.259,1.909-1.272c0.815-0.027,1.593,0.466,1.939,1.218l8.739,18.762    l4.966-9.541c0.362-0.697,1.082-1.133,1.87-1.136h0.003c0.785,0,1.505,0.436,1.867,1.13l6.969,13.285l9.462-27.218    c0.305-0.872,1.071-1.494,2.071-1.412c0.922,0.033,1.719,0.664,1.961,1.558l4.686,17.396h11.393    c-0.385,0.71-0.829,1.396-1.313,2.063c5.608-7.778,4.933-18.716-2.065-25.712C79.07,19.073,74.065,17,68.742,17    c-5.322,0-10.326,2.073-14.09,5.839L50,27.496l-4.658-4.657C41.582,19.073,36.577,17,31.255,17c-5.323,0-10.33,2.073-14.096,5.839    c-7.762,7.772-7.762,20.414,0.003,28.178c-0.973-0.971-1.821-2.019-2.549-3.124H22.246z"
         id="path1" /></g><g
       id="g2"><path
         d="M83.118,50.699c0.582-0.608,1.115-1.248,1.604-1.906C84.23,49.452,83.7,50.091,83.118,50.699z"
         id="path2" /></g><g
       id="g3"><path
         d="M73.203,50.702c-0.956,0-1.791-0.639-2.038-1.558l-3.326-12.348l-8.813,25.351c-0.277,0.792-1,1.347-1.838,1.409    c-0.052,0.003-0.106,0.006-0.156,0.006c-0.78,0-1.502-0.431-1.867-1.13l-7.355-14.021l-5.076,9.756    c-0.373,0.713-1.099,1.129-1.92,1.135c-0.805-0.017-1.527-0.49-1.865-1.218l-8.563-18.384l-4.814,11.136    c-0.333,0.771-1.096,1.27-1.937,1.27H18.25L48.506,82.38C48.901,82.777,49.439,83,50,83s1.096-0.223,1.491-0.62L82.83,51.018    c0.102-0.102,0.187-0.211,0.285-0.315H73.203z"
         id="path3" /></g></g><g
     id="g7"><g
       id="g5"><path
         d="M14.613,47.894H5v4.213h13.25l-1.088-1.089C16.189,50.047,15.341,48.999,14.613,47.894z"
         id="path4" /></g><g
       id="g6"><path
         d="M86.211,46.489c-0.821,1.506-1.856,2.921-3.096,4.213H95v-4.213H86.211z"
         id="path5" /></g></g></svg>
